<svg width="14" height="14" viewBox="0 0 14 14" fill="none" xmlns="http://www.w3.org/2000/svg">
<path d="M13.5598 4.55547C13.6473 4.79336 13.5734 5.05859 13.3848 5.22813L12.2008 6.30547C12.2309 6.53242 12.2473 6.76484 12.2473 7C12.2473 7.23516 12.2309 7.46758 12.2008 7.69453L13.3848 8.77187C13.5734 8.94141 13.6473 9.20664 13.5598 9.44453C13.4395 9.76992 13.2945 10.0816 13.1277 10.3824L12.9992 10.6039C12.8188 10.9047 12.6164 11.1891 12.3949 11.457C12.2336 11.6539 11.9656 11.7195 11.725 11.643L10.202 11.159C9.83555 11.4406 9.43086 11.6758 8.99883 11.8535L8.65703 13.4148C8.60234 13.6637 8.41094 13.8605 8.15938 13.9016C7.78203 13.9645 7.39375 13.9973 6.99727 13.9973C6.60078 13.9973 6.2125 13.9645 5.83516 13.9016C5.58359 13.8605 5.39219 13.6637 5.3375 13.4148L4.9957 11.8535C4.56367 11.6758 4.15898 11.4406 3.79258 11.159L2.27227 11.6457C2.03164 11.7223 1.76367 11.6539 1.60234 11.4598C1.38086 11.1918 1.17852 10.9074 0.998047 10.6066L0.869531 10.3852C0.702735 10.0844 0.557813 9.77266 0.4375 9.44727C0.35 9.20938 0.423828 8.94414 0.6125 8.77461L1.79648 7.69727C1.76641 7.46758 1.75 7.23516 1.75 7C1.75 6.76484 1.76641 6.53242 1.79648 6.30547L0.6125 5.22813C0.423828 5.05859 0.35 4.79336 0.4375 4.55547C0.557813 4.23008 0.702735 3.91836 0.869531 3.61758L0.998047 3.39609C1.17852 3.09531 1.38086 2.81094 1.60234 2.54297C1.76367 2.34609 2.03164 2.28047 2.27227 2.35703L3.79531 2.84102C4.16172 2.55938 4.56641 2.32422 4.99844 2.14648L5.34023 0.585156C5.39492 0.336328 5.58633 0.139453 5.83789 0.0984375C6.21523 0.0328125 6.60352 0 7 0C7.39648 0 7.78477 0.0328125 8.16211 0.0957031C8.41367 0.136719 8.60508 0.333594 8.65977 0.582422L9.00156 2.14375C9.43359 2.32148 9.83828 2.55664 10.2047 2.83828L11.7277 2.3543C11.9684 2.27773 12.2363 2.34609 12.3977 2.54023C12.6191 2.8082 12.8215 3.09258 13.002 3.39336L13.1305 3.61484C13.2973 3.91562 13.4422 4.22734 13.5625 4.55273L13.5598 4.55547ZM7 9.1875C7.58016 9.1875 8.13656 8.95703 8.5468 8.5468C8.95703 8.13656 9.1875 7.58016 9.1875 7C9.1875 6.41984 8.95703 5.86344 8.5468 5.4532C8.13656 5.04297 7.58016 4.8125 7 4.8125C6.41984 4.8125 5.86344 5.04297 5.4532 5.4532C5.04297 5.86344 4.8125 6.41984 4.8125 7C4.8125 7.58016 5.04297 8.13656 5.4532 8.5468C5.86344 8.95703 6.41984 9.1875 7 9.1875Z" fill="#6B7280"/>
</svg>

