<svg width="96" height="21" viewBox="0 0 96 21" fill="none" xmlns="http://www.w3.org/2000/svg">
<path d="M0.4 15V0.599999H2.81V6.66H9.63V0.599999H12.03V15H9.63V8.92H2.81V15H0.4ZM19.6036 15.3C18.5236 15.3 17.5803 15.0567 16.7736 14.57C15.9669 14.0833 15.3403 13.4133 14.8936 12.56C14.4536 11.7 14.2336 10.7133 14.2336 9.6C14.2336 8.46667 14.4603 7.47333 14.9136 6.62C15.3669 5.76667 15.9969 5.1 16.8036 4.62C17.6103 4.14 18.5436 3.9 19.6036 3.9C20.6903 3.9 21.6369 4.14333 22.4436 4.63C23.2503 5.11667 23.8769 5.79 24.3236 6.65C24.7703 7.50333 24.9936 8.48667 24.9936 9.6C24.9936 10.72 24.7669 11.71 24.3136 12.57C23.8669 13.4233 23.2403 14.0933 22.4336 14.58C21.6269 15.06 20.6836 15.3 19.6036 15.3ZM19.6036 13.04C20.5636 13.04 21.2769 12.72 21.7436 12.08C22.2103 11.44 22.4436 10.6133 22.4436 9.6C22.4436 8.55333 22.2069 7.72 21.7336 7.1C21.2603 6.47333 20.5503 6.16 19.6036 6.16C18.9569 6.16 18.4236 6.30667 18.0036 6.6C17.5903 6.88667 17.2836 7.29 17.0836 7.81C16.8836 8.32333 16.7836 8.92 16.7836 9.6C16.7836 10.6467 17.0203 11.4833 17.4936 12.11C17.9736 12.73 18.6769 13.04 19.6036 13.04ZM31.7369 20.1C31.1369 20.1 30.5602 20.0067 30.0069 19.82C29.4602 19.6333 28.9669 19.3633 28.5269 19.01C28.0869 18.6633 27.7269 18.2433 27.4469 17.75L29.6669 16.65C29.8735 17.0433 30.1635 17.3333 30.5369 17.52C30.9169 17.7133 31.3202 17.81 31.7469 17.81C32.2469 17.81 32.6935 17.72 33.0869 17.54C33.4802 17.3667 33.7835 17.1067 33.9969 16.76C34.2169 16.42 34.3202 15.9933 34.3069 15.48V12.41H34.6069V4.2H36.7169V15.52C36.7169 15.7933 36.7035 16.0533 36.6769 16.3C36.6569 16.5533 36.6202 16.8 36.5669 17.04C36.4069 17.74 36.1002 18.3133 35.6469 18.76C35.1935 19.2133 34.6302 19.55 33.9569 19.77C33.2902 19.99 32.5502 20.1 31.7369 20.1ZM31.5269 15.3C30.5335 15.3 29.6669 15.05 28.9269 14.55C28.1869 14.05 27.6135 13.37 27.2069 12.51C26.8002 11.65 26.5969 10.68 26.5969 9.6C26.5969 8.50667 26.8002 7.53333 27.2069 6.68C27.6202 5.82 28.2035 5.14333 28.9569 4.65C29.7102 4.15 30.5969 3.9 31.6169 3.9C32.6435 3.9 33.5035 4.15 34.1969 4.65C34.8969 5.14333 35.4269 5.82 35.7869 6.68C36.1469 7.54 36.3269 8.51333 36.3269 9.6C36.3269 10.6733 36.1469 11.6433 35.7869 12.51C35.4269 13.37 34.8902 14.05 34.1769 14.55C33.4635 15.05 32.5802 15.3 31.5269 15.3ZM31.8969 13.14C32.5435 13.14 33.0635 12.9933 33.4569 12.7C33.8569 12.4 34.1469 11.9833 34.3269 11.45C34.5135 10.9167 34.6069 10.3 34.6069 9.6C34.6069 8.89333 34.5135 8.27667 34.3269 7.75C34.1469 7.21667 33.8635 6.80333 33.4769 6.51C33.0902 6.21 32.5902 6.06 31.9769 6.06C31.3302 6.06 30.7969 6.22 30.3769 6.54C29.9569 6.85333 29.6469 7.28 29.4469 7.82C29.2469 8.35333 29.1469 8.94667 29.1469 9.6C29.1469 10.26 29.2435 10.86 29.4369 11.4C29.6369 11.9333 29.9402 12.3567 30.3469 12.67C30.7535 12.9833 31.2702 13.14 31.8969 13.14ZM42.5411 15.3C41.7611 15.3 41.1011 15.1533 40.5611 14.86C40.0211 14.56 39.6111 14.1633 39.3311 13.67C39.0578 13.1767 38.9211 12.6333 38.9211 12.04C38.9211 11.52 39.0078 11.0533 39.1811 10.64C39.3544 10.22 39.6211 9.86 39.9811 9.56C40.3411 9.25333 40.8078 9.00333 41.3811 8.81C41.8144 8.67 42.3211 8.54333 42.9011 8.43C43.4878 8.31667 44.1211 8.21333 44.8011 8.12C45.4878 8.02 46.2044 7.91333 46.9511 7.8L46.0911 8.29C46.0978 7.54333 45.9311 6.99333 45.5911 6.64C45.2511 6.28667 44.6778 6.11 43.8711 6.11C43.3844 6.11 42.9144 6.22333 42.4611 6.45C42.0078 6.67667 41.6911 7.06667 41.5111 7.62L39.3111 6.93C39.5778 6.01667 40.0844 5.28333 40.8311 4.73C41.5844 4.17667 42.5978 3.9 43.8711 3.9C44.8311 3.9 45.6744 4.05667 46.4011 4.37C47.1344 4.68333 47.6778 5.19667 48.0311 5.91C48.2244 6.29 48.3411 6.68 48.3811 7.08C48.4211 7.47333 48.4411 7.90333 48.4411 8.37V15H46.3311V12.66L46.6811 13.04C46.1944 13.82 45.6244 14.3933 44.9711 14.76C44.3244 15.12 43.5144 15.3 42.5411 15.3ZM43.0211 13.38C43.5678 13.38 44.0344 13.2833 44.4211 13.09C44.8078 12.8967 45.1144 12.66 45.3411 12.38C45.5744 12.1 45.7311 11.8367 45.8111 11.59C45.9378 11.2833 46.0078 10.9333 46.0211 10.54C46.0411 10.14 46.0511 9.81667 46.0511 9.57L46.7911 9.79C46.0644 9.90333 45.4411 10.0033 44.9211 10.09C44.4011 10.1767 43.9544 10.26 43.5811 10.34C43.2078 10.4133 42.8778 10.4967 42.5911 10.59C42.3111 10.69 42.0744 10.8067 41.8811 10.94C41.6878 11.0733 41.5378 11.2267 41.4311 11.4C41.3311 11.5733 41.2811 11.7767 41.2811 12.01C41.2811 12.2767 41.3478 12.5133 41.4811 12.72C41.6144 12.92 41.8078 13.08 42.0611 13.2C42.3211 13.32 42.6411 13.38 43.0211 13.38ZM51.0445 15V4.2H53.1745V6.83L52.9145 6.49C53.0479 6.13 53.2245 5.80333 53.4445 5.51C53.6712 5.21 53.9412 4.96333 54.2545 4.77C54.5212 4.59 54.8145 4.45 55.1345 4.35C55.4612 4.24333 55.7945 4.18 56.1345 4.16C56.4745 4.13333 56.8045 4.14667 57.1245 4.2V6.45C56.8045 6.35667 56.4345 6.32667 56.0145 6.36C55.6012 6.39333 55.2279 6.51 54.8945 6.71C54.5612 6.89 54.2879 7.12 54.0745 7.4C53.8679 7.68 53.7145 8 53.6145 8.36C53.5145 8.71333 53.4645 9.09667 53.4645 9.51V15H51.0445Z" fill="#2563EB"/>
<path d="M66.9067 15.29C66.1934 15.29 65.5367 15.1633 64.9367 14.91C64.3367 14.6567 63.8201 14.2967 63.3867 13.83C62.9534 13.3567 62.6367 12.7933 62.4367 12.14L63.8367 11.72C64.0767 12.4333 64.4701 12.9733 65.0167 13.34C65.5701 13.7067 66.1934 13.8833 66.8867 13.87C67.5267 13.8567 68.0767 13.7133 68.5367 13.44C69.0034 13.1667 69.3601 12.7867 69.6067 12.3C69.8534 11.8133 69.9767 11.25 69.9767 10.61C69.9767 9.63 69.6901 8.84333 69.1167 8.25C68.5501 7.65 67.8001 7.35 66.8667 7.35C66.6067 7.35 66.3334 7.38667 66.0467 7.46C65.7601 7.52667 65.4934 7.62333 65.2467 7.75L64.5067 6.58L70.1067 1.41L70.3467 2.01H63.0067V0.599999H71.3267V2.03L66.4467 6.69L66.4267 6.11C67.4267 5.98333 68.3067 6.09667 69.0667 6.45C69.8267 6.80333 70.4201 7.34333 70.8467 8.07C71.2801 8.79 71.4967 9.63667 71.4967 10.61C71.4967 11.53 71.2967 12.3433 70.8967 13.05C70.5034 13.75 69.9601 14.3 69.2667 14.7C68.5734 15.0933 67.7867 15.29 66.9067 15.29ZM78.9614 15.3C78.0614 15.3 77.2414 15.0833 76.5014 14.65C75.7681 14.21 75.1814 13.6167 74.7414 12.87C74.3081 12.1167 74.0914 11.27 74.0914 10.33V5.34C74.0914 4.37333 74.3081 3.51333 74.7414 2.76C75.1747 2 75.7647 1.40333 76.5114 0.969999C77.2647 0.529999 78.1181 0.309999 79.0714 0.309999C79.8914 0.309999 80.6514 0.489999 81.3514 0.849999C82.0581 1.21 82.6347 1.71333 83.0814 2.36L81.9514 3.29C81.6447 2.81 81.2381 2.42667 80.7314 2.14C80.2247 1.85333 79.6714 1.71 79.0714 1.71C78.3981 1.71 77.7981 1.87333 77.2714 2.2C76.7447 2.52667 76.3314 2.95667 76.0314 3.49C75.7314 4.01667 75.5814 4.59 75.5814 5.21V8.35L75.2114 7.93C75.6314 7.27 76.1814 6.73667 76.8614 6.33C77.5481 5.92333 78.2947 5.72 79.1014 5.72C79.9947 5.72 80.7981 5.93333 81.5114 6.36C82.2247 6.78 82.7914 7.35 83.2114 8.07C83.6314 8.79 83.8414 9.59667 83.8414 10.49C83.8414 11.3767 83.6181 12.1833 83.1714 12.91C82.7314 13.6367 82.1414 14.2167 81.4014 14.65C80.6681 15.0833 79.8547 15.3 78.9614 15.3ZM78.9614 13.87C79.5881 13.87 80.1581 13.72 80.6714 13.42C81.1914 13.12 81.6014 12.7133 81.9014 12.2C82.2081 11.6867 82.3614 11.1167 82.3614 10.49C82.3614 9.86333 82.2081 9.29333 81.9014 8.78C81.6014 8.26 81.1947 7.85 80.6814 7.55C80.1681 7.24333 79.5981 7.09 78.9714 7.09C78.3447 7.09 77.7747 7.24333 77.2614 7.55C76.7481 7.85 76.3381 8.26 76.0314 8.78C75.7314 9.29333 75.5814 9.86333 75.5814 10.49C75.5814 11.11 75.7314 11.6767 76.0314 12.19C76.3314 12.7033 76.7381 13.1133 77.2514 13.42C77.7647 13.72 78.3347 13.87 78.9614 13.87ZM91.1938 15.3C90.3071 15.3 89.5071 15.0933 88.7938 14.68C88.0871 14.2667 87.5271 13.7067 87.1138 13C86.7004 12.2867 86.4938 11.4867 86.4938 10.6V5C86.4938 4.11333 86.7004 3.31667 87.1138 2.61C87.5271 1.89667 88.0871 1.33333 88.7938 0.919999C89.5071 0.506666 90.3071 0.3 91.1938 0.3C92.0804 0.3 92.8771 0.506666 93.5838 0.919999C94.2971 1.33333 94.8604 1.89667 95.2738 2.61C95.6871 3.31667 95.8938 4.11333 95.8938 5V10.6C95.8938 11.4867 95.6871 12.2867 95.2738 13C94.8604 13.7067 94.2971 14.2667 93.5838 14.68C92.8771 15.0933 92.0804 15.3 91.1938 15.3ZM91.1938 13.88C91.7871 13.88 92.3271 13.7367 92.8138 13.45C93.3004 13.1567 93.6871 12.7667 93.9738 12.28C94.2604 11.7933 94.4038 11.2567 94.4038 10.67V4.93C94.4038 4.33667 94.2604 3.79667 93.9738 3.31C93.6871 2.82333 93.3004 2.43667 92.8138 2.15C92.3271 1.85667 91.7871 1.71 91.1938 1.71C90.6004 1.71 90.0604 1.85667 89.5738 2.15C89.0871 2.43667 88.7004 2.82333 88.4138 3.31C88.1271 3.79667 87.9838 4.33667 87.9838 4.93V10.67C87.9838 11.2567 88.1271 11.7933 88.4138 12.28C88.7004 12.7667 89.0871 13.1567 89.5738 13.45C90.0604 13.7367 90.6004 13.88 91.1938 13.88Z" fill="black"/>
</svg>
